<svg xmlns="http://www.w3.org/2000/svg" viewBox="0 0 273.25 340.61"><title>Ресурс 1</title><g id="Слой_2" data-name="Слой 2"><g id="Слой_1-2" data-name="Слой 1"><path fill="#ffffff" d="M47.26,323.07C61,289.39,73.18,254.94,86.08,220.92q29.39-77.55,58.73-155.11l13.4-35.41H111.92L162,151.09,169,168c2.5,6,5.15,10.91,11,14.34,5.14,3,12.73,4.29,18.49,2.42,11.11-3.6,21.91-17.11,16.76-29.52L165.21,34.51l-7-16.87C154.25,8.09,146.46-.49,135.07,0S115.84,7.3,111.92,17.64Q93.46,66.43,75,115.22q-29.61,78.2-59.26,156.39C10.83,284.5,6.2,297.54,1,310.31-1.22,315.67.61,324,3.39,328.8c2.91,5,8.62,9.73,14.34,11,6.14,1.4,13,1.1,18.49-2.42s8.53-8.23,11-14.34Z"/><path fill="#ffffff" d="M189.3,234.37l31.83,76.73L225.64,322c2.5,6,5.15,10.91,11,14.34,5.14,3,12.73,4.29,18.49,2.42,11.11-3.6,21.91-17.11,16.76-29.52L240.1,232.5l-4.51-10.88c-2.5-6-5.15-10.91-11-14.34-5.14-3-12.73-4.29-18.49-2.42-11.11,3.6-21.91,17.11-16.76,29.52Z"/><path fill="#ffffff" d="M91.94,200.61c3.48-2.86-5,3.23-.81.65,1-.62,2-1.31,3-1.91q.95-.58,1.93-1.09,2.75-1.32-.09-.09t0,.05l1.53-.48a24.11,24.11,0,0,1,2.38-.57q2.72-.53-2.22.28c.21.24,3,0,3.29,0,2.84-.2-6-1.5-2.47-.22,2.3.84,3.78,2.16-1.81-1a92.88,92.88,0,0,0,38.68,11.45c25.88,2,56.75-8,73.72-28.34,8-9.64,10.15-24.63,0-33.94-8.86-8.13-25.36-10.3-33.94,0a43.71,43.71,0,0,1-4.2,4.38q-.73.67-1.49,1.3-2.25,1.82.15-.09t-.08-.06l-1.39.92c-2.64,1.71-5.42,3.09-8.17,4.59-2.58,1.4,4.74-1.67.56-.24-1.53.52-3,1.07-4.6,1.52-2.87.84-5.77,1.36-8.68,2s5.3-.44.78-.13c-1.6.11-3.19.24-4.8.29a73,73,0,0,1-8.64-.25c-4.08-.36-.7-.6,1.07.18a30.39,30.39,0,0,0-4.37-.9q-2.07-.51-4.1-1.18c-3.76-1.24-.74-.55,1,.6a53.18,53.18,0,0,0-6.33-3.07c-7.15-3.38-13.54-5.51-21.52-5.85C84.28,148.72,70,156.83,58,166.67c-9.74,8-8.91,25.76,0,33.94,10.35,9.5,23.55,8.54,33.94,0Z"/></g></g></svg>